<svg xmlns="http://www.w3.org/2000/svg" viewBox="0 0 272 265.15"><defs><style>.cls-1{fill:#fff;}.cls-2{fill:#cdcccc;stroke:#cdcccc;stroke-miterlimit:10;}</style></defs><title>user</title><g id="Layer_3" data-name="Layer 3"><rect class="cls-1" width="272" height="265.15"/></g><g id="Layer_2" data-name="Layer 2"><path class="cls-2" d="M90.22,116.84S86,94.93,88.91,85.12C98.48,53.25,142.73,48,167.72,64.26a36.67,36.67,0,0,1,15,21.68s4.25,16.84,0,30.9c0,0,19,17.33-4.58,32.7-.6.39-.79,8.37-1,9.37-1.44,6.54-5,13.66-10.46,17.8.22,7.8,0,15.68,0,23.51,0,1.5,19.94,8.49,21.6,9.2,11.4,4.91,22.73,10,34.05,15.07,9,4.07,21.67,7.48,27.66,16,4.76,6.75,5.75,16.2,5.62,24.18H16a61.54,61.54,0,0,1,2-15.46c3.05-11.61,13.83-17.5,24.11-21.85,12.79-5.41,25.39-11.2,38.27-16.4,2.44-1,26.19-9.19,26.16-11l-.33-22.23c0-.42-2.51-2.88-2.93-3.45-2.6-3.56-5.25-7.38-6.58-11.62-1-3.14-3-11-1-13.7-1.68,2.26-8.71-4-9.82-5.34C82.14,138.83,80,132,81.26,126A14.22,14.22,0,0,1,84,119.8C84.44,119.31,89.95,115.44,90.22,116.84Z"/></g></svg>