<?xml version="1.0" encoding="utf-8"?>
<!-- Generator: Adobe Illustrator 16.0.0, SVG Export Plug-In . SVG Version: 6.00 Build 0)  -->
<!DOCTYPE svg PUBLIC "-//W3C//DTD SVG 1.1//EN" "http://www.w3.org/Graphics/SVG/1.1/DTD/svg11.dtd">
<svg version="1.1" xmlns="http://www.w3.org/2000/svg" xmlns:xlink="http://www.w3.org/1999/xlink" x="0px" y="0px"
	 width="484.758px" height="152.645px" viewBox="0 0 484.758 152.645" enable-background="new 0 0 484.758 152.645"
	 xml:space="preserve">
<g id="Layer_1">
	<g>
		<path fill="#FFFFFF" d="M345.5,38.037c-5.278-5.684-10.389-9.471-15.326-11.368c-4.942-1.894-9.916-2.842-14.921-2.842
			c-7.444,0-14.179,1.319-20.199,3.958c-6.023,2.639-11.2,6.293-15.529,10.962c-4.333,4.669-7.683,10.118-10.049,16.341
			c-2.369,6.227-3.552,12.925-3.552,20.097c0,7.714,1.183,14.819,3.552,21.315c2.366,6.496,5.716,12.113,10.049,16.849
			c4.33,4.739,9.506,8.459,15.529,11.166c6.02,2.708,12.754,4.06,20.199,4.06c5.817,0,11.47-1.386,16.95-4.161
			c5.48-2.773,10.588-7.207,15.326-13.297l21.112,15.021c-6.496,8.932-14.413,15.428-23.751,19.488s-19.285,6.09-29.841,6.09
			c-11.099,0-21.283-1.795-30.552-5.379c-9.271-3.584-17.255-8.66-23.954-15.226c-6.699-6.562-11.945-14.444-15.732-23.649
			c-3.79-9.202-5.684-19.418-5.684-30.653c0-11.501,1.894-21.956,5.684-31.364c3.788-9.404,9.034-17.423,15.732-24.055
			c6.699-6.629,14.683-11.739,23.954-15.327c9.269-3.584,19.453-5.379,30.552-5.379c9.743,0,18.777,1.726,27.101,5.176
			c8.322,3.451,16.068,9.307,23.243,17.56L345.5,38.037z"/>
		<path fill="#FFFFFF" d="M385.896,4.338h95.207V27.48h-69.629v35.322h65.975v23.142h-65.975v38.976h73.283v23.142h-98.861V4.338z"
			/>
	</g>
</g>
<g id="Layer_2">
	<g>
		<path fill="#3CC2CF" d="M231.564,130.876c0,2.274-0.776,4.286-2.32,6.032l-11.602,13.114c-1.548,1.749-3.329,2.622-5.336,2.622
			c-2.012,0-3.793-0.873-5.337-2.622L115.781,46.948L24.595,150.023c-1.547,1.749-3.328,2.622-5.337,2.622
			c-2.012,0-3.792-0.873-5.336-2.622L2.32,136.909C0.772,135.163,0,133.151,0,130.876c0-2.271,0.772-4.282,2.32-6.032L110.446,2.623
			C111.989,0.877,113.771,0,115.781,0c2.009,0,3.79,0.877,5.337,2.623l108.125,122.221
			C230.788,126.594,231.564,128.606,231.564,130.876z"/>
	</g>
</g>
</svg>
