<?xml version="1.0" encoding="utf-8"?>
<!-- Generator: Adobe Illustrator 16.0.0, SVG Export Plug-In . SVG Version: 6.00 Build 0)  -->
<!DOCTYPE svg PUBLIC "-//W3C//DTD SVG 1.1//EN" "http://www.w3.org/Graphics/SVG/1.1/DTD/svg11.dtd">
<svg version="1.1" id="Layer_1" xmlns="http://www.w3.org/2000/svg" xmlns:xlink="http://www.w3.org/1999/xlink" x="0px" y="0px"
	 width="504px" height="119px" viewBox="0 0 504 119" enable-background="new 0 0 504 119" xml:space="preserve">
<g>
	<defs>
		<rect id="SVGID_1_" width="504" height="119"/>
	</defs>
	<clipPath id="SVGID_2_">
		<use xlink:href="#SVGID_1_"  overflow="visible"/>
	</clipPath>
	<path clip-path="url(#SVGID_2_)" fill="#FFFFFF" d="M151.027,90.102c-1.267,0-2.334-0.434-3.2-1.3c-0.867-0.866-1.3-1.933-1.3-3.2
		v-39.2h-5.9c-1.067,0-1.984-0.383-2.75-1.15c-0.767-0.766-1.15-1.683-1.15-2.75c0-1.133,0.383-2.066,1.15-2.8
		c0.766-0.733,1.683-1.1,2.75-1.1h5.9v-5.8c0-4,0.716-7.283,2.15-9.85c1.433-2.566,3.3-4.433,5.6-5.6
		c2.3-1.166,4.715-1.75,7.25-1.75c3.132,0,6.032,0.667,8.699,2c0.666,0.334,1.216,0.817,1.65,1.45c0.433,0.634,0.65,1.317,0.65,2.05
		c0,1-0.367,1.884-1.1,2.65c-0.734,0.767-1.6,1.15-2.6,1.15c-0.734,0-1.5-0.1-2.3-0.3c-1.6-0.2-2.499-0.3-2.699-0.3
		c-2.735,0-4.785,0.634-6.15,1.9c-1.367,1.267-2.05,3.567-2.05,6.9v5.5h12.499c1.133,0,2.066,0.367,2.8,1.1
		c0.733,0.734,1.1,1.667,1.1,2.8c0,1.067-0.367,1.984-1.1,2.75c-0.734,0.767-1.667,1.15-2.8,1.15h-12.499v39.2
		c0,1.268-0.45,2.334-1.35,3.2C153.377,89.668,152.292,90.102,151.027,90.102 M182.828,28.202c-1.4,0-2.6-0.5-3.6-1.5
		s-1.5-2.2-1.5-3.6v-0.4c0-1.4,0.5-2.6,1.5-3.6s2.2-1.5,3.6-1.5h0.6c1.4,0,2.6,0.5,3.6,1.5s1.5,2.2,1.5,3.6v0.4
		c0,1.4-0.5,2.6-1.5,3.6s-2.2,1.5-3.6,1.5H182.828z M183.027,90.102c-1.267,0-2.334-0.434-3.2-1.3c-0.867-0.866-1.3-1.933-1.3-3.2
		V42.702c0-1.266,0.433-2.35,1.3-3.25c0.866-0.9,1.933-1.35,3.2-1.35c1.333,0,2.433,0.434,3.3,1.3c0.865,0.867,1.3,1.967,1.3,3.3
		v42.899c0,1.268-0.45,2.334-1.35,3.2C185.377,89.668,184.292,90.102,183.027,90.102 M218.622,90.602
		c-9.734,0-14.6-4.399-14.6-13.199v-31h-7.099c-0.535,0-0.985-0.183-1.35-0.55c-0.367-0.366-0.55-0.816-0.55-1.35
		c0-0.666,0.3-1.233,0.9-1.7l13.599-13.3c0.6-0.6,1.166-0.9,1.7-0.9c0.533,0,0.983,0.2,1.35,0.6c0.366,0.4,0.55,0.867,0.55,1.4v8
		h11.3c1.133,0,2.066,0.367,2.8,1.1c0.733,0.734,1.1,1.667,1.1,2.8c0,1.067-0.367,1.984-1.1,2.75c-0.734,0.767-1.667,1.15-2.8,1.15
		h-11.3v30.2c0,2.601,0.616,4.25,1.85,4.95c1.233,0.7,2.783,1.05,4.65,1.05c1.333,0,2.666-0.199,4-0.6
		c0.266-0.066,0.55-0.133,0.85-0.2c0.3-0.065,0.683-0.1,1.15-0.1c0.933,0,1.766,0.35,2.5,1.05c0.733,0.7,1.1,1.55,1.1,2.55
		c0,1.534-0.767,2.7-2.3,3.5C224.321,90.002,221.555,90.602,218.622,90.602 M253.321,90.602c-6.667,0-12.734-1.5-18.199-4.5
		c-1.135-0.8-1.7-1.899-1.7-3.3c0-1.065,0.365-2,1.1-2.8c0.732-0.8,1.665-1.2,2.799-1.2c0.6,0,1.2,0.134,1.8,0.4
		c2.133,0.934,4.266,1.667,6.4,2.2c2.133,0.533,4.533,0.8,7.2,0.8c7.399,0,11.1-2.366,11.1-7.101c0-1.532-0.85-2.699-2.55-3.5
		c-1.7-0.8-4.484-1.699-8.35-2.699c-3.935-0.934-7.185-1.9-9.75-2.9c-2.567-1-4.767-2.516-6.6-4.55
		c-1.834-2.033-2.749-4.716-2.749-8.05c0-4.666,1.682-8.466,5.049-11.4c3.366-2.933,8.183-4.4,14.45-4.4
		c5.133,0,9.965,0.834,14.5,2.5c0.933,0.267,1.65,0.767,2.15,1.5c0.5,0.734,0.75,1.5,0.75,2.3c0,1.067-0.385,2-1.15,2.8
		c-0.768,0.8-1.718,1.2-2.85,1.2c-0.335,0-0.768-0.066-1.3-0.2c-3.867-1.2-7.667-1.8-11.4-1.8c-3.6,0-6.417,0.65-8.45,1.95
		c-2.034,1.3-3.05,2.984-3.05,5.05c0,2,0.933,3.467,2.8,4.4c1.866,0.934,4.766,1.834,8.7,2.7c3.933,1,7.133,1.984,9.6,2.95
		c2.466,0.967,4.583,2.483,6.351,4.55c1.765,2.067,2.649,4.834,2.649,8.3c0,4.268-1.685,7.8-5.05,10.601
		C264.204,89.202,259.454,90.602,253.321,90.602 M286.725,28.202c-1.4,0-2.6-0.5-3.6-1.5s-1.5-2.2-1.5-3.6v-0.4
		c0-1.4,0.5-2.6,1.5-3.6s2.199-1.5,3.6-1.5h0.6c1.4,0,2.601,0.5,3.601,1.5s1.5,2.2,1.5,3.6v0.4c0,1.4-0.5,2.6-1.5,3.6
		s-2.2,1.5-3.601,1.5H286.725z M286.925,90.102c-1.268,0-2.335-0.434-3.2-1.3c-0.867-0.866-1.3-1.933-1.3-3.2V42.702
		c0-1.266,0.433-2.35,1.3-3.25c0.865-0.9,1.933-1.35,3.2-1.35c1.333,0,2.433,0.434,3.3,1.3c0.865,0.867,1.3,1.967,1.3,3.3v42.899
		c0,1.268-0.45,2.334-1.35,3.2C289.274,89.668,288.189,90.102,286.925,90.102 M328.719,113.602c-3.867,0-7.768-0.5-11.7-1.5
		c-3.934-1-7.167-2.233-9.7-3.699c-1.2-0.734-1.8-1.9-1.8-3.5c0-1.067,0.383-2.018,1.15-2.851c0.766-0.834,1.716-1.25,2.85-1.25
		c0.533,0,1.133,0.133,1.8,0.4c5.066,2.533,10.566,3.8,16.5,3.8c10.2,0,15.299-5.434,15.299-16.3v-6.7
		c-4.733,5.067-10.434,7.6-17.099,7.6c-3.934,0-7.75-0.982-11.45-2.949s-6.75-4.9-9.149-8.801c-2.4-3.899-3.6-8.649-3.6-14.25
		c0-5.6,1.199-10.35,3.6-14.25c2.399-3.9,5.449-6.833,9.149-8.8c3.7-1.966,7.517-2.95,11.45-2.95c6.665,0,12.365,2.534,17.099,7.6
		v-2.5c0-1.266,0.434-2.35,1.301-3.25c0.865-0.9,1.933-1.35,3.199-1.35s2.351,0.45,3.25,1.35c0.9,0.9,1.351,1.984,1.351,3.25v44.7
		c0,8.399-2.034,14.865-6.101,19.399C342.051,111.335,336.252,113.602,328.719,113.602 M327.919,81.302c3.133,0,5.899-0.666,8.3-2
		c2.399-1.333,4.7-3.133,6.898-5.399V53.302c-2.198-2.266-4.499-4.066-6.898-5.4c-2.4-1.333-5.167-2-8.3-2
		c-5,0-9.084,1.517-12.25,4.55c-3.167,3.034-4.75,7.417-4.75,13.149c0,5.734,1.583,10.117,4.75,13.15
		C318.835,79.786,322.919,81.302,327.919,81.302 M370.119,90.102c-1.267,0-2.334-0.434-3.199-1.3
		c-0.867-0.866-1.301-1.933-1.301-3.2V42.702c0-1.266,0.434-2.35,1.301-3.25c0.865-0.9,1.933-1.35,3.199-1.35s2.351,0.45,3.25,1.35
		c0.9,0.9,1.351,1.984,1.351,3.25v4.1c1.866-2.666,4.116-4.866,6.75-6.6c2.633-1.733,6.05-2.6,10.25-2.6c3.731,0,6.932,1,9.6,3
		c2.665,2,4.565,4.434,5.699,7.3c4.133-6.866,10.266-10.3,18.4-10.3c3.732,0,6.85,0.934,9.35,2.8c2.5,1.867,4.35,4.267,5.55,7.2
		c1.2,2.934,1.8,6,1.8,9.2v28.8c0,1.268-0.449,2.334-1.35,3.2s-1.985,1.3-3.25,1.3c-1.269,0-2.335-0.434-3.2-1.3
		c-0.867-0.866-1.3-1.933-1.3-3.2v-27c0-4.333-0.767-7.516-2.3-9.55c-1.535-2.033-4.167-3.05-7.9-3.05
		c-3.399,0-6.217,0.884-8.45,2.65c-2.233,1.767-4.217,4.084-5.949,6.95v30c0,1.268-0.45,2.334-1.351,3.2
		c-0.899,0.866-1.983,1.3-3.25,1.3s-2.334-0.434-3.199-1.3c-0.867-0.866-1.3-1.933-1.3-3.2v-27c0-4.333-0.768-7.516-2.3-9.55
		c-1.535-2.033-4.167-3.05-7.9-3.05c-3.399,0-6.217,0.884-8.449,2.65c-2.234,1.767-4.218,4.084-5.95,6.95v30
		c0,1.268-0.45,2.334-1.351,3.2C372.47,89.668,371.386,90.102,370.119,90.102 M468.013,90.602c-2.935,0-5.65-0.6-8.15-1.8
		s-4.483-2.95-5.95-5.25s-2.199-4.95-2.199-7.95c0-4.933,1.949-8.865,5.85-11.8c3.9-2.933,9.616-4.4,17.15-4.4h12.1v-0.8
		c0-4.4-1.085-7.566-3.25-9.5c-2.167-1.933-5.55-2.9-10.15-2.9c-2.533,0-4.783,0.2-6.75,0.6c-1.967,0.4-4.149,1-6.55,1.8
		c-0.534,0.134-0.967,0.2-1.3,0.2c-1,0-1.867-0.366-2.6-1.1c-0.734-0.733-1.101-1.633-1.101-2.7c0-1.8,0.866-3.066,2.601-3.8
		c5.666-2.4,11.433-3.6,17.3-3.6c4.6,0,8.481,0.934,11.649,2.8c3.165,1.867,5.499,4.284,6.999,7.25c1.5,2.967,2.25,6.184,2.25,9.65
		v28.3c0,1.268-0.449,2.334-1.35,3.2s-1.984,1.3-3.25,1.3c-1.267,0-2.334-0.434-3.199-1.3c-0.868-0.866-1.3-1.933-1.3-3.2v-2.6
		C481.878,88.069,475.612,90.602,468.013,90.602 M471.412,82.602c2.934,0,5.766-0.716,8.5-2.149c2.733-1.434,5.032-3.216,6.9-5.351
		v-8.399h-10.9c-10.066,0-15.1,2.634-15.1,7.899c0,2.4,0.816,4.334,2.45,5.801C464.896,81.869,467.612,82.602,471.412,82.602"/>
	<path clip-path="url(#SVGID_2_)" fill-rule="evenodd" clip-rule="evenodd" fill="#CF1010" d="M96,104.003H19.011
		c-5.5,0-10-4.5-10-10V17.015c0-5.5,4.5-10,10-10H96c5.5,0,10,4.5,10,10v76.988C106,99.503,101.5,104.003,96,104.003"/>
	<path clip-path="url(#SVGID_2_)" fill="#FFFFFF" d="M72.475,29.935c0.227,0,0.447-0.065,0.659-0.195
		c0.211-0.13,0.391-0.334,0.537-0.611c0.147-0.276,0.252-0.634,0.318-1.074c0.064-0.439,0.097-0.952,0.097-1.538
		c0-0.651-0.033-1.196-0.097-1.636c-0.066-0.439-0.171-0.805-0.318-1.098c-0.146-0.293-0.326-0.505-0.537-0.635
		c-0.212-0.13-0.432-0.195-0.659-0.195H45.328l5.862,6.982H72.475z"/>
	<path clip-path="url(#SVGID_2_)" fill="#FFFFFF" d="M45.913,79.154l4.155-5.482l4.472-5.909l0.003,0.002l9.094-12
		c0.228-0.293,0.423-0.569,0.586-0.83c0.163-0.26,0.293-0.52,0.391-0.781c0.097-0.26,0.162-0.545,0.195-0.855
		c0.032-0.309,0.049-0.642,0.049-1.001c0-0.422-0.017-0.788-0.049-1.098c-0.033-0.309-0.098-0.594-0.195-0.855
		c-0.098-0.26-0.228-0.512-0.391-0.757c-0.163-0.244-0.358-0.512-0.586-0.805L48.056,30.219l-6.101-7.266h-1.364
		c-0.879,0-1.571,0.277-2.075,0.83c-0.505,0.553-0.757,1.351-0.757,2.392v1.416c0,0.619,0.032,1.165,0.098,1.636
		c0.064,0.472,0.17,0.912,0.317,1.318c0.146,0.408,0.358,0.814,0.635,1.221c0.276,0.407,0.659,0.887,1.147,1.44L56.215,52.64
		L38.491,75.883c-0.488,0.618-0.887,1.164-1.196,1.636c-0.31,0.473-0.537,0.92-0.684,1.343c-0.146,0.423-0.236,0.839-0.268,1.245
		c-0.033,0.407-0.049,0.871-0.049,1.392v1.367c0,1.14,0.26,1.97,0.781,2.49s1.188,0.78,2.002,0.78h1.555l5.286-6.981H45.913z"/>
	<path clip-path="url(#SVGID_2_)" fill="#FFFFFF" d="M74.403,81.034c-0.082-0.439-0.195-0.797-0.342-1.074
		c-0.146-0.276-0.326-0.48-0.537-0.611c-0.212-0.129-0.448-0.194-0.708-0.194H49.158l-5.285,6.982h28.944
		c0.26,0,0.496-0.064,0.708-0.196c0.211-0.129,0.391-0.342,0.537-0.634c0.147-0.293,0.26-0.66,0.342-1.099
		c0.081-0.44,0.122-0.952,0.122-1.538C74.525,82.019,74.484,81.473,74.403,81.034"/>
</g>
</svg>
