<?xml version="1.0" encoding="utf-8"?>
<!-- Generator: Adobe Illustrator 19.0.0, SVG Export Plug-In . SVG Version: 6.00 Build 0)  -->
<svg version="1.1" id="Layer_4" xmlns="http://www.w3.org/2000/svg" xmlns:xlink="http://www.w3.org/1999/xlink" x="0px" y="0px"
	 viewBox="0 0 504 119" style="enable-background:new 0 0 504 119;" xml:space="preserve">
<style type="text/css">
	.st0{fill-rule:evenodd;clip-rule:evenodd;fill:#CF1010;}
	.st1{fill:#FFFFFF;}
</style>
<g>
	<defs>
		<path id="SVGID_1_" d="M151,90.1c-1.3,0-2.3-0.4-3.2-1.3c-0.9-0.9-1.3-1.9-1.3-3.2V46.4h-5.9c-1.1,0-2-0.4-2.7-1.2
			c-0.8-0.8-1.1-1.7-1.1-2.8c0-1.1,0.4-2.1,1.1-2.8c0.8-0.7,1.7-1.1,2.7-1.1h5.9v-5.8c0-4,0.7-7.3,2.1-9.9c1.4-2.6,3.3-4.4,5.6-5.6
			c2.3-1.2,4.7-1.8,7.2-1.8c3.1,0,6,0.7,8.7,2c0.7,0.3,1.2,0.8,1.6,1.5c0.4,0.6,0.6,1.3,0.6,2.1c0,1-0.4,1.9-1.1,2.7
			c-0.7,0.8-1.6,1.2-2.6,1.2c-0.7,0-1.5-0.1-2.3-0.3c-1.6-0.2-2.5-0.3-2.7-0.3c-2.7,0-4.8,0.6-6.1,1.9c-1.4,1.3-2,3.6-2,6.9v5.5
			h12.5c1.1,0,2.1,0.4,2.8,1.1c0.7,0.7,1.1,1.7,1.1,2.8c0,1.1-0.4,2-1.1,2.8c-0.7,0.8-1.7,1.2-2.8,1.2h-12.5v39.2
			c0,1.3-0.4,2.3-1.3,3.2C153.4,89.7,152.3,90.1,151,90.1L151,90.1z M182.8,28.2c-1.4,0-2.6-0.5-3.6-1.5c-1-1-1.5-2.2-1.5-3.6v-0.4
			c0-1.4,0.5-2.6,1.5-3.6c1-1,2.2-1.5,3.6-1.5h0.6c1.4,0,2.6,0.5,3.6,1.5c1,1,1.5,2.2,1.5,3.6v0.4c0,1.4-0.5,2.6-1.5,3.6
			c-1,1-2.2,1.5-3.6,1.5H182.8L182.8,28.2z M183,90.1c-1.3,0-2.3-0.4-3.2-1.3c-0.9-0.9-1.3-1.9-1.3-3.2V42.7c0-1.3,0.4-2.4,1.3-3.3
			c0.9-0.9,1.9-1.3,3.2-1.3c1.3,0,2.4,0.4,3.3,1.3c0.9,0.9,1.3,2,1.3,3.3v42.9c0,1.3-0.4,2.3-1.3,3.2
			C185.4,89.7,184.3,90.1,183,90.1L183,90.1z M218.6,90.6c-9.7,0-14.6-4.4-14.6-13.2v-31h-7.1c-0.5,0-1-0.2-1.3-0.6
			c-0.4-0.4-0.5-0.8-0.5-1.3c0-0.7,0.3-1.2,0.9-1.7l13.6-13.3c0.6-0.6,1.2-0.9,1.7-0.9c0.5,0,1,0.2,1.3,0.6c0.4,0.4,0.6,0.9,0.6,1.4
			v8h11.3c1.1,0,2.1,0.4,2.8,1.1c0.7,0.7,1.1,1.7,1.1,2.8c0,1.1-0.4,2-1.1,2.8c-0.7,0.8-1.7,1.2-2.8,1.2h-11.3v30.2
			c0,2.6,0.6,4.3,1.8,5c1.2,0.7,2.8,1.1,4.6,1.1c1.3,0,2.7-0.2,4-0.6c0.3-0.1,0.5-0.1,0.8-0.2c0.3-0.1,0.7-0.1,1.1-0.1
			c0.9,0,1.8,0.3,2.5,1.1c0.7,0.7,1.1,1.6,1.1,2.6c0,1.5-0.8,2.7-2.3,3.5C224.3,90,221.6,90.6,218.6,90.6L218.6,90.6z M253.3,90.6
			c-6.7,0-12.7-1.5-18.2-4.5c-1.1-0.8-1.7-1.9-1.7-3.3c0-1.1,0.4-2,1.1-2.8c0.7-0.8,1.7-1.2,2.8-1.2c0.6,0,1.2,0.1,1.8,0.4
			c2.1,0.9,4.3,1.7,6.4,2.2c2.1,0.5,4.5,0.8,7.2,0.8c7.4,0,11.1-2.4,11.1-7.1c0-1.5-0.9-2.7-2.5-3.5c-1.7-0.8-4.5-1.7-8.3-2.7
			c-3.9-0.9-7.2-1.9-9.7-2.9c-2.6-1-4.8-2.5-6.6-4.6c-1.8-2-2.7-4.7-2.7-8.1c0-4.7,1.7-8.5,5-11.4c3.4-2.9,8.2-4.4,14.4-4.4
			c5.1,0,10,0.8,14.5,2.5c0.9,0.3,1.6,0.8,2.1,1.5c0.5,0.7,0.8,1.5,0.8,2.3c0,1.1-0.4,2-1.2,2.8c-0.8,0.8-1.7,1.2-2.8,1.2
			c-0.3,0-0.8-0.1-1.3-0.2c-3.9-1.2-7.7-1.8-11.4-1.8c-3.6,0-6.4,0.6-8.4,1.9c-2,1.3-3,3-3,5.1c0,2,0.9,3.5,2.8,4.4
			c1.9,0.9,4.8,1.8,8.7,2.7c3.9,1,7.1,2,9.6,3c2.5,1,4.6,2.5,6.3,4.6c1.8,2.1,2.6,4.8,2.6,8.3c0,4.3-1.7,7.8-5,10.6
			C264.2,89.2,259.5,90.6,253.3,90.6L253.3,90.6z M286.7,28.2c-1.4,0-2.6-0.5-3.6-1.5c-1-1-1.5-2.2-1.5-3.6v-0.4
			c0-1.4,0.5-2.6,1.5-3.6c1-1,2.2-1.5,3.6-1.5h0.6c1.4,0,2.6,0.5,3.6,1.5c1,1,1.5,2.2,1.5,3.6v0.4c0,1.4-0.5,2.6-1.5,3.6
			c-1,1-2.2,1.5-3.6,1.5H286.7L286.7,28.2z M286.9,90.1c-1.3,0-2.3-0.4-3.2-1.3c-0.9-0.9-1.3-1.9-1.3-3.2V42.7
			c0-1.3,0.4-2.4,1.3-3.3c0.9-0.9,1.9-1.3,3.2-1.3c1.3,0,2.4,0.4,3.3,1.3c0.9,0.9,1.3,2,1.3,3.3v42.9c0,1.3-0.4,2.3-1.3,3.2
			C289.3,89.7,288.2,90.1,286.9,90.1L286.9,90.1z M328.7,113.6c-3.9,0-7.8-0.5-11.7-1.5c-3.9-1-7.2-2.2-9.7-3.7
			c-1.2-0.7-1.8-1.9-1.8-3.5c0-1.1,0.4-2,1.1-2.9c0.8-0.8,1.7-1.3,2.8-1.3c0.5,0,1.1,0.1,1.8,0.4c5.1,2.5,10.6,3.8,16.5,3.8
			c10.2,0,15.3-5.4,15.3-16.3V82c-4.7,5.1-10.4,7.6-17.1,7.6c-3.9,0-7.7-1-11.4-3c-3.7-2-6.7-4.9-9.1-8.8c-2.4-3.9-3.6-8.7-3.6-14.3
			c0-5.6,1.2-10.4,3.6-14.3c2.4-3.9,5.4-6.8,9.1-8.8c3.7-2,7.5-3,11.4-3c6.7,0,12.4,2.5,17.1,7.6v-2.5c0-1.3,0.4-2.4,1.3-3.3
			c0.9-0.9,1.9-1.3,3.2-1.3c1.3,0,2.3,0.4,3.2,1.3c0.9,0.9,1.3,2,1.3,3.3v44.7c0,8.4-2,14.9-6.1,19.4
			C342.1,111.3,336.3,113.6,328.7,113.6L328.7,113.6z M327.9,81.3c3.1,0,5.9-0.7,8.3-2c2.4-1.3,4.7-3.1,6.9-5.4V53.3
			c-2.2-2.3-4.5-4.1-6.9-5.4c-2.4-1.3-5.2-2-8.3-2c-5,0-9.1,1.5-12.2,4.6c-3.2,3-4.7,7.4-4.7,13.2c0,5.7,1.6,10.1,4.7,13.2
			C318.8,79.8,322.9,81.3,327.9,81.3L327.9,81.3z M370.1,90.1c-1.3,0-2.3-0.4-3.2-1.3c-0.9-0.9-1.3-1.9-1.3-3.2V42.7
			c0-1.3,0.4-2.4,1.3-3.3c0.9-0.9,1.9-1.3,3.2-1.3c1.3,0,2.3,0.4,3.2,1.3c0.9,0.9,1.3,2,1.3,3.3v4.1c1.9-2.7,4.1-4.9,6.7-6.6
			c2.6-1.7,6-2.6,10.2-2.6c3.7,0,6.9,1,9.6,3c2.7,2,4.6,4.4,5.7,7.3c4.1-6.9,10.3-10.3,18.4-10.3c3.7,0,6.8,0.9,9.3,2.8
			c2.5,1.9,4.3,4.3,5.5,7.2c1.2,2.9,1.8,6,1.8,9.2v28.8c0,1.3-0.4,2.3-1.3,3.2c-0.9,0.9-2,1.3-3.2,1.3c-1.3,0-2.3-0.4-3.2-1.3
			c-0.9-0.9-1.3-1.9-1.3-3.2v-27c0-4.3-0.8-7.5-2.3-9.6c-1.5-2-4.2-3.1-7.9-3.1c-3.4,0-6.2,0.9-8.4,2.7c-2.2,1.8-4.2,4.1-5.9,7v30
			c0,1.3-0.4,2.3-1.3,3.2c-0.9,0.9-2,1.3-3.2,1.3c-1.3,0-2.3-0.4-3.2-1.3c-0.9-0.9-1.3-1.9-1.3-3.2v-27c0-4.3-0.8-7.5-2.3-9.6
			c-1.5-2-4.2-3.1-7.9-3.1c-3.4,0-6.2,0.9-8.4,2.7c-2.2,1.8-4.2,4.1-5.9,7v30c0,1.3-0.4,2.3-1.3,3.2
			C372.5,89.7,371.4,90.1,370.1,90.1L370.1,90.1z M468,90.6c-2.9,0-5.6-0.6-8.1-1.8c-2.5-1.2-4.5-3-5.9-5.3c-1.5-2.3-2.2-5-2.2-8
			c0-4.9,1.9-8.9,5.8-11.8c3.9-2.9,9.6-4.4,17.1-4.4h12.1v-0.8c0-4.4-1.1-7.6-3.2-9.5c-2.2-1.9-5.5-2.9-10.1-2.9
			c-2.5,0-4.8,0.2-6.7,0.6c-2,0.4-4.1,1-6.5,1.8c-0.5,0.1-1,0.2-1.3,0.2c-1,0-1.9-0.4-2.6-1.1c-0.7-0.7-1.1-1.6-1.1-2.7
			c0-1.8,0.9-3.1,2.6-3.8c5.7-2.4,11.4-3.6,17.3-3.6c4.6,0,8.5,0.9,11.6,2.8c3.2,1.9,5.5,4.3,7,7.3c1.5,3,2.2,6.2,2.2,9.7v28.3
			c0,1.3-0.5,2.3-1.3,3.2s-2,1.3-3.2,1.3c-1.3,0-2.3-0.4-3.2-1.3c-0.9-0.9-1.3-1.9-1.3-3.2V83C481.9,88.1,475.6,90.6,468,90.6
			L468,90.6z M471.4,82.6c2.9,0,5.8-0.7,8.5-2.2c2.7-1.4,5-3.2,6.9-5.4v-8.4h-10.9c-10.1,0-15.1,2.6-15.1,7.9c0,2.4,0.8,4.3,2.4,5.8
			C464.9,81.9,467.6,82.6,471.4,82.6L471.4,82.6z"/>
	</defs>
	<use xlink:href="#SVGID_1_"  style="overflow:visible;"/>
	<clipPath id="SVGID_2_">
		<use xlink:href="#SVGID_1_"  style="overflow:visible;"/>
	</clipPath>
</g>
<path class="st0" d="M96,104H19c-5.5,0-10-4.5-10-10V17c0-5.5,4.5-10,10-10h77c5.5,0,10,4.5,10,10v77C106,99.5,101.5,104,96,104z"/>
<g>
	<path class="st1" d="M72.5,29.9c0.2,0,0.4-0.1,0.7-0.2c0.2-0.1,0.4-0.3,0.5-0.6c0.1-0.3,0.3-0.6,0.3-1.1c0.1-0.4,0.1-1,0.1-1.5
		c0-0.7,0-1.2-0.1-1.6c-0.1-0.4-0.2-0.8-0.3-1.1s-0.3-0.5-0.5-0.6C72.9,23,72.7,23,72.5,23H45.3l5.9,7H72.5z"/>
	<path class="st1" d="M45.9,79.2l4.2-5.5l4.5-5.9l0,0l9.1-12c0.2-0.3,0.4-0.6,0.6-0.8c0.2-0.3,0.3-0.5,0.4-0.8
		c0.1-0.3,0.2-0.5,0.2-0.9c0-0.3,0-0.6,0-1c0-0.4,0-0.8,0-1.1c0-0.3-0.1-0.6-0.2-0.9c-0.1-0.3-0.2-0.5-0.4-0.8
		c-0.2-0.2-0.4-0.5-0.6-0.8L48.1,30.2L42,23h-1.4c-0.9,0-1.6,0.3-2.1,0.8c-0.5,0.6-0.8,1.4-0.8,2.4v1.4c0,0.6,0,1.2,0.1,1.6
		c0.1,0.5,0.2,0.9,0.3,1.3c0.1,0.4,0.4,0.8,0.6,1.2c0.3,0.4,0.7,0.9,1.1,1.4l16.3,19.4L38.5,75.9c-0.5,0.6-0.9,1.2-1.2,1.6
		c-0.3,0.5-0.5,0.9-0.7,1.3c-0.1,0.4-0.2,0.8-0.3,1.2c0,0.4,0,0.9,0,1.4v1.4c0,1.1,0.3,2,0.8,2.5c0.5,0.5,1.2,0.8,2,0.8h1.6
		L45.9,79.2L45.9,79.2z"/>
	<path class="st1" d="M74.4,81c-0.1-0.4-0.2-0.8-0.3-1.1c-0.1-0.3-0.3-0.5-0.5-0.6c-0.2-0.1-0.4-0.2-0.7-0.2H49.2l-5.3,7h28.9
		c0.3,0,0.5-0.1,0.7-0.2c0.2-0.1,0.4-0.3,0.5-0.6s0.3-0.7,0.3-1.1c0.1-0.4,0.1-1,0.1-1.5C74.5,82,74.5,81.5,74.4,81z"/>
</g>
</svg>
